<?xml version="1.0" standalone="no"?>
<!DOCTYPE svg PUBLIC "-//W3C//DTD SVG 20010904//EN"
 "http://www.w3.org/TR/2001/REC-SVG-20010904/DTD/svg10.dtd">
<svg version="1.0" xmlns="http://www.w3.org/2000/svg"
 width="256.000000pt" height="256.000000pt" viewBox="0 0 256.000000 256.000000"
 preserveAspectRatio="xMidYMid meet">

<g transform="translate(0.000000,256.000000) scale(0.100000,-0.100000)"
fill="#000000" stroke="none">
<path d="M1197 2160 c2 -34 0 -68 -5 -77 -6 -10 -6 -30 0 -50 6 -22 6 -51 0
-79 -7 -32 -6 -44 2 -44 6 0 5 -4 -3 -9 -12 -8 -12 -12 -2 -25 10 -12 11 -16
1 -16 -9 0 -10 -8 -5 -27 12 -44 12 -1203 0 -1203 -6 0 -5 -4 1 -8 8 -5 11
-68 12 -199 0 -105 3 -197 7 -203 5 -9 35 -10 109 -5 436 29 770 170 918 389
173 254 219 703 107 1044 -11 34 -24 62 -27 62 -4 -1 -23 -26 -42 -56 -47 -75
-171 -192 -257 -243 -92 -55 -220 -106 -313 -125 -78 -17 -437 -42 -447 -32
-3 3 26 35 66 72 114 106 171 243 171 412 0 179 -85 346 -231 451 -60 44 -66
41 -62 -29z"/>
</g>
</svg>
