<?xml version="1.0" standalone="no"?>
<!DOCTYPE svg PUBLIC "-//W3C//DTD SVG 20010904//EN"
 "http://www.w3.org/TR/2001/REC-SVG-20010904/DTD/svg10.dtd">
<svg version="1.0" xmlns="http://www.w3.org/2000/svg"
 width="256.000000pt" height="256.000000pt" viewBox="0 0 256.000000 256.000000"
 preserveAspectRatio="xMidYMid meet">

<g transform="translate(0.000000,256.000000) scale(0.100000,-0.100000)"
fill="#000000" stroke="none">
<path d="M745 2296 c-159 -39 -311 -160 -385 -306 -48 -96 -64 -165 -65 -282
0 -62 -4 -110 -10 -112 -5 -2 -54 -22 -108 -45 -107 -44 -157 -75 -157 -97 0
-25 78 -100 137 -131 69 -37 170 -63 241 -63 56 0 74 -13 41 -30 -41 -22 -6
-32 75 -21 72 10 80 9 138 -14 34 -14 67 -25 75 -25 23 0 14 -14 -24 -40 -57
-38 -149 -126 -188 -180 -89 -121 -113 -280 -60 -399 63 -140 252 -258 490
-308 175 -36 419 -38 595 -5 462 87 698 263 804 600 56 178 73 442 41 627 -16
89 -63 245 -74 245 -3 0 -17 -19 -31 -43 -40 -67 -187 -208 -267 -255 -177
-104 -320 -141 -573 -149 l-185 -6 70 69 c113 111 165 240 165 411 0 274 -185
501 -457 558 -82 18 -219 18 -288 1z m132 -426 c88 -53 84 -208 -6 -255 -67
-34 -167 -11 -206 49 -43 65 -19 165 48 206 43 26 121 26 164 0z"/>
</g>
</svg>
