<svg xmlns="http://www.w3.org/2000/svg" width="256" height="256" viewBox="0 0 256 256" version="1.1"><path d="M 74.500 26.391 C 53.952 31.408, 37.032 48.175, 31.419 69.080 L 29.696 75.500 29.640 85.748 L 29.583 95.996 18.173 100.743 C 0.982 107.896, -0.289 109.561, 6.127 116.522 C 12.954 123.928, 28.057 130, 39.651 130 C 45.420 130, 47.215 131.279, 43.921 133.042 L 41.785 134.185 42.763 135.163 L 43.740 136.140 51.120 135.102 L 58.500 134.063 66.247 136.781 C 75.225 139.932, 75.103 139.744, 70.295 143 C 59.062 150.608, 49.383 162.087, 45.498 172.410 L 43 179.046 43.001 187.273 L 43.002 195.500 45.857 201.536 L 48.713 207.572 55.024 213.284 L 61.336 218.996 71.418 223.938 L 81.500 228.880 95.500 231.630 L 109.500 234.380 125 234.346 L 140.500 234.312 150.500 232.628 C 211.186 222.405, 237.158 194.982, 239.652 138.500 L 240.270 124.500 239.074 115.500 C 237.650 104.790, 235.359 95.126, 232.827 89.148 L 230.984 84.796 227.067 90.661 C 215.766 107.585, 195.925 120.836, 173.291 126.578 L 163.597 129.037 146.168 130.076 C 136.582 130.647, 128.051 130.850, 127.209 130.527 L 125.679 129.940 132.232 123.578 L 138.784 117.217 142.377 109.858 C 164.823 63.890, 124.417 14.202, 74.500 26.391 M 74.619 66.991 C 66.165 69.651, 61.513 80.290, 65.464 87.931 C 74.145 104.718, 99.645 94.786, 93.855 76.873 C 91.392 69.252, 82.292 64.577, 74.619 66.991" stroke="none" fill="#fbfbfb" fill-rule="evenodd"/></svg>